<?xml version="1.0" encoding="utf-8"?>
<!-- Generator: Adobe Illustrator 22.1.0, SVG Export Plug-In . SVG Version: 6.00 Build 0)  -->
<svg version="1.1" id="Ebene_1" xmlns="http://www.w3.org/2000/svg" xmlns:xlink="http://www.w3.org/1999/xlink" x="0px" y="0px"
	 viewBox="0 0 39.7 27.2" style="enable-background:new 0 0 39.7 27.2;" xml:space="preserve">
<style type="text/css">
	.st0{fill:#E3E3E3;}
	.st1{fill:#64C2C8;}
	.st2{fill:#0067A2;}
	.st3{clip-path:url(#SVGID_2_);fill:#E3E3E3;}
	.st4{clip-path:url(#SVGID_2_);fill:#76B82A;}
</style>
<rect x="2.1" y="18.4" class="st0" width="12.7" height="7.8"/>
<rect x="19.3" y="1.9" class="st0" width="8.3" height="24.6"/>
<rect x="0.7" y="17.2" class="st1" width="12.7" height="7.8"/>
<rect x="17.7" y="0.6" class="st2" width="8.5" height="24.6"/>
<g>
	<defs>
		<rect id="SVGID_1_" x="0.7" y="0.5" width="38.6" height="25.9"/>
	</defs>
	<clipPath id="SVGID_2_">
		<use xlink:href="#SVGID_1_"  style="overflow:visible;"/>
	</clipPath>
	<path class="st3" d="M32.1,1.3c-0.1,0-0.3,0-0.4,0v13.3c0.1,0,0.3,0,0.4,0c4,0,7.2-3,7.2-6.6C39.4,4.3,36.1,1.3,32.1,1.3"/>
	<path class="st4" d="M30.9,0.5c-0.1,0-0.3,0-0.4,0v13.2c0.1,0,0.3,0,0.4,0c4,0,7.2-3,7.2-6.6C38.1,3.5,34.9,0.5,30.9,0.5"/>
</g>
</svg>
